<svg xmlns="http://www.w3.org/2000/svg" xmlns:xlink="http://www.w3.org/1999/xlink" viewBox="29.903 330.805 530.617 222.517">
  <path fill="none" d="M0 0h595.28v841.89H0z"/>
  <path fill="#CC992E" fill-rule="evenodd" d="M183.96 397.975c13.76-.066 24.636-1.244 32.072 4.836 3.32 2.71 5.914 6.89 8.966 10.34 8.55 9.69 18.547 20.6 26.896 30.01v-45.18h20.35v65.53c-14.097.21-25.557 1.16-32.765-5.17-3.02-2.65-5.93-6.54-8.97-10-8.28-9.45-17.98-21.34-26.54-29.65v44.83h-20.36c.24-21.72-.46-44.37.34-65.53zm179.32 15.522c-15.657.52-31.113.49-48.277.345-4.512-.043-11.11-.074-10.69 4.484.43 4.522 8.838 3.46 13.106 3.795 14.7 1.14 34.27-.18 42.07 8.62 5.63 6.36 5.44 23.63-2.08 29.31-6.55 4.96-21.05 3.46-34.14 3.46-20.94 0-38.67 3.32-39.65-15.52h32.08c7.49 0 27.5 2.44 27.23-4.47-.17-4.5-7.98-3.67-14.15-4.14-15.55-1.19-37 .17-43.11-11.03-4.2-7.72-2.9-20.2 2.42-25.52 7.6-7.6 28.19-4.83 43.8-4.83 16.69 0 31.11-.79 31.37 15.52zm11.727-15.522h20v65.53H374.66v-64.49c-.03-.496-.05-.974.347-1.04zm61.38 0h22.416c11.214 21.89 22.646 43.57 33.795 65.53h-20.34c-1.75-3.54-3.878-6.708-5.524-10.345h-38.276c-2.273 3.125-3.986 6.805-5.854 10.344h-20.356c11.288-21.94 22.295-44.152 34.14-65.53zm1.38 37.93c6.332-.222 13.562.468 19.318-.336-3.673-5.3-5.99-11.95-10.013-16.9-2.914 5.92-6.306 11.38-9.305 17.23z" clip-rule="evenodd"/>
  <path fill="#223068" d="M180.973 507.975l12.18-31.696h4.514l12.974 31.69h-4.78l-3.69-9.6h-13.25l-3.48 9.6h-4.46zm9.155-13.018h10.738l-3.305-8.775c-1-2.664-1.76-4.86-2.24-6.582-.4 2.034-.96 4.054-1.71 6.06l-3.47 9.297zm22.438 2.833l3.958-.348c.184 1.588.622 2.888 1.313 3.9.68 1.017 1.74 1.845 3.182 2.472 1.44.62 3.06.94 4.86.94 1.6 0 3.01-.24 4.23-.714 1.22-.48 2.13-1.13 2.74-1.963.59-.824.89-1.732.89-2.707 0-.996-.29-1.867-.87-2.605-.57-.746-1.53-1.367-2.86-1.873-.84-.33-2.73-.846-5.64-1.543-2.92-.71-4.95-1.37-6.12-1.99-1.51-.79-2.64-1.77-3.39-2.95-.73-1.17-1.12-2.49-1.12-3.94 0-1.61.46-3.11 1.36-4.5.92-1.39 2.24-2.45 3.98-3.17 1.75-.73 3.67-1.09 5.82-1.09 2.34 0 4.42.38 6.21 1.14 1.79.75 3.17 1.86 4.13 3.33.97 1.47 1.49 3.14 1.56 4.99l-4.03.3c-.22-2-.95-3.52-2.19-4.55-1.24-1.02-3.09-1.54-5.53-1.54-2.54 0-4.386.46-5.55 1.39-1.16.94-1.74 2.06-1.74 3.366 0 1.144.407 2.076 1.237 2.816.807.735 2.91 1.49 6.327 2.255 3.41.774 5.75 1.45 7.013 2.03 1.848.85 3.21 1.924 4.085 3.23.88 1.3 1.32 2.81 1.32 4.51 0 1.685-.482 3.274-1.45 4.77-.96 1.49-2.35 2.653-4.16 3.48-1.81.83-3.846 1.24-6.104 1.24-2.87 0-5.28-.41-7.22-1.248-1.93-.84-3.445-2.1-4.56-3.78-1.09-1.677-1.675-3.575-1.73-5.695zm29.54 0l3.957-.348c.177 1.588.612 2.888 1.314 3.9.678 1.017 1.742 1.845 3.18 2.472 1.446.62 3.065.94 4.862.94 1.6 0 3.01-.24 4.24-.714 1.21-.48 2.14-1.13 2.73-1.963.6-.824.89-1.732.89-2.707 0-.996-.28-1.867-.87-2.605-.57-.746-1.52-1.367-2.85-1.873-.85-.33-2.73-.846-5.65-1.543-2.91-.71-4.95-1.37-6.12-1.99-1.52-.79-2.65-1.77-3.39-2.95-.74-1.17-1.11-2.49-1.11-3.94 0-1.61.45-3.11 1.36-4.5.89-1.39 2.22-2.45 3.98-3.17 1.73-.73 3.66-1.09 5.8-1.09 2.35 0 4.42.38 6.23 1.14 1.78.75 3.16 1.86 4.13 3.33.96 1.47 1.48 3.14 1.55 4.99l-4.02.3c-.21-2-.94-3.52-2.19-4.55-1.25-1.02-3.09-1.54-5.52-1.54-2.54 0-4.39.46-5.55 1.39-1.16.94-1.74 2.06-1.74 3.366 0 1.144.4 2.076 1.22 2.816.81.735 2.92 1.49 6.33 2.255 3.41.774 5.75 1.45 7.02 2.03 1.84.85 3.21 1.924 4.09 3.23.88 1.3 1.32 2.81 1.32 4.51 0 1.685-.49 3.274-1.44 4.77-.98 1.49-2.36 2.653-4.17 3.48-1.81.83-3.86 1.24-6.12 1.24-2.86 0-5.27-.41-7.21-1.248-1.94-.84-3.46-2.1-4.566-3.78-1.11-1.677-1.67-3.575-1.73-5.695zm51.754-21.512h4.2v18.308c0 3.188-.358 5.72-1.072 7.596-.727 1.87-2.026 3.395-3.907 4.57-1.88 1.178-4.35 1.762-7.4 1.762-2.97 0-5.41-.51-7.29-1.543-1.88-1.01-3.23-2.49-4.03-4.43-.82-1.93-1.21-4.58-1.21-7.95v-18.31h4.19v18.29c0 2.76.26 4.79.77 6.1.51 1.31 1.39 2.31 2.65 3.02 1.24.71 2.77 1.06 4.57 1.06 3.1 0 5.29-.7 6.6-2.09 1.31-1.4 1.96-4.08 1.96-8.07V476.3zm11.243 31.697V476.28h14.064c2.825 0 4.974.283 6.443.847 1.472.574 2.646 1.575 3.522 3.02.88 1.44 1.318 3.032 1.318 4.78 0 2.244-.727 4.146-2.18 5.684-1.458 1.55-3.702 2.53-6.75 2.95 1.11.54 1.95 1.06 2.53 1.58 1.224 1.12 2.39 2.53 3.48 4.21l5.515 8.64h-5.27l-4.198-6.6c-1.23-1.9-2.236-3.35-3.034-4.36-.79-1.01-1.5-1.72-2.134-2.12-.62-.4-1.25-.68-1.91-.84-.47-.1-1.25-.15-2.34-.15h-4.86V508h-4.2zm4.204-17.707h9.022c1.9 0 3.4-.2 4.49-.604 1.07-.392 1.9-1.02 2.47-1.898.56-.873.83-1.813.83-2.84 0-1.502-.54-2.732-1.64-3.697-1.09-.97-2.81-1.45-5.15-1.45H309.3v10.48zm24.235 17.707l12.17-31.696h4.52l12.98 31.69h-4.777l-3.698-9.6h-13.254l-3.483 9.6h-4.458zm9.15-13.018h10.746l-3.313-8.775c-1.014-2.664-1.747-4.86-2.248-6.582-.397 2.034-.97 4.054-1.71 6.06l-3.474 9.297zm23.826 13.018V476.28h4.308l16.647 24.883V476.28h4.017v31.695h-4.293l-16.66-24.91v24.91h-4.02zm54.646-11.115l4.18 1.064c-.873 3.438-2.456 6.066-4.74 7.87-2.283 1.817-5.074 2.72-8.372 2.72-3.422 0-6.19-.69-8.335-2.08-2.148-1.395-3.77-3.408-4.902-6.05-1.1-2.64-1.666-5.466-1.666-8.497 0-3.303.64-6.178 1.89-8.633 1.26-2.458 3.05-4.333 5.38-5.606 2.32-1.278 4.89-1.915 7.68-1.915 3.16 0 5.84.813 8 2.427 2.16 1.613 3.66 3.877 4.52 6.804l-4.14.98c-.73-2.307-1.8-3.993-3.2-5.045-1.4-1.05-3.16-1.57-5.28-1.57-2.44 0-4.47.57-6.11 1.75-1.64 1.16-2.79 2.73-3.45 4.69-.67 1.97-1 4-1 6.09 0 2.7.39 5.05 1.17 7.06.78 2 2 3.51 3.67 4.5 1.66.99 3.45 1.48 5.38 1.48 2.35 0 4.34-.68 5.97-2.03 1.62-1.35 2.72-3.37 3.31-6.03zm9.45 11.115V476.28h22.907v3.738H434.8v9.714h17.53v3.714H434.8v10.785h19.462v3.75h-23.648zm28.016-10.185l3.947-.348c.195 1.588.638 2.888 1.318 3.9.68 1.017 1.748 1.845 3.188 2.472 1.44.62 3.072.94 4.86.94 1.61 0 3.028-.24 4.237-.714 1.228-.48 2.14-1.13 2.746-1.963.594-.824.89-1.732.89-2.707 0-.996-.288-1.867-.863-2.605-.57-.746-1.527-1.367-2.856-1.873-.842-.33-2.728-.846-5.635-1.543-2.92-.71-4.967-1.37-6.12-1.99-1.517-.79-2.65-1.77-3.397-2.95-.73-1.17-1.105-2.49-1.105-3.94 0-1.61.458-3.11 1.363-4.5.91-1.39 2.222-2.45 3.992-3.17 1.73-.73 3.664-1.09 5.814-1.09 2.34 0 4.4.38 6.2 1.14 1.79.75 3.17 1.86 4.13 3.33.97 1.47 1.49 3.14 1.56 4.99l-4.02.3c-.23-2-.95-3.52-2.2-4.55-1.25-1.02-3.08-1.54-5.52-1.54-2.54 0-4.39.46-5.55 1.39-1.15.94-1.74 2.06-1.74 3.366 0 1.144.41 2.076 1.23 2.816.8.735 2.9 1.49 6.31 2.255 3.41.774 5.75 1.45 7.02 2.03 1.84.85 3.2 1.924 4.08 3.23.89 1.3 1.33 2.81 1.33 4.51 0 1.685-.49 3.274-1.46 4.77-.97 1.49-2.35 2.653-4.15 3.48-1.82.83-3.86 1.24-6.12 1.24-2.87 0-5.27-.41-7.22-1.248-1.93-.84-3.46-2.1-4.56-3.78-1.1-1.677-1.68-3.575-1.74-5.695z"/>
  <path fill="#CC992E" d="M503.518 474.086l-7.522-21.052h4.6l5.34 15.577 5.147-15.57h4.513l-7.542 21.05h-4.536zm13.676-17.316v-3.735h4.032v3.736h-4.032zm0 17.316v-15.25h4.032v15.25h-4.032zm17.003-4.852l4.024.68c-.52 1.468-1.34 2.59-2.45 3.36-1.11.763-2.5 1.15-4.19 1.15-2.65 0-4.6-.862-5.87-2.597-1.01-1.383-1.51-3.13-1.51-5.252 0-2.525.65-4.507 1.99-5.938 1.32-1.426 2.99-2.145 5.01-2.145 2.26 0 4.07.744 5.38 2.245 1.31 1.495 1.94 3.79 1.88 6.874h-10.11c.02 1.21.37 2.14.98 2.8.62.67 1.4 1 2.33 1 .63 0 1.16-.17 1.59-.51.44-.33.76-.89.99-1.65zm.23-4.073c-.026-1.17-.323-2.05-.9-2.66-.576-.61-1.288-.91-2.104-.91-.88 0-1.606.32-2.184.96-.58.65-.86 1.52-.84 2.63h6.02z"/>
  <defs>
    <path id="a" d="M41.965 341.9c.663.44.967.637 1.19.785 12.81 8.565 25.918 16.826 37.406 27.17 3.24 2.91 6.33 5.987 9.31 9.158 2.64-1.464 7.75-4.77 14.04-8.214-.52-.24-4.43-2.54-5.1-2.88-1.39-.72-2.8-1.43-4.2-2.13-.28-.14-.56-.28-.84-.43-10.12-5.11-20.23-9.55-30.54-14.28-5.75-2.64-10.44-4.61-17.02-7.55-3.29-1.47-2.81-1.22-3.99-1.76l-.23.11z"/>
  </defs>
  <clipPath id="c">
    <use overflow="visible" xlink:href="#a"/>
  </clipPath>
  <linearGradient id="b" x1="-437.992" x2="-437.633" y1="1206.107" y2="1206.107" gradientTransform="rotate(89.69 -295692.518 -136869.73) scale(358.084)" gradientUnits="userSpaceOnUse">
    <stop offset="0" stop-color="#CBA645"/>
    <stop offset=".028" stop-color="#CBA645"/>
    <stop offset=".22" stop-color="#E2AF29"/>
    <stop offset=".478" stop-color="#F7DA7E"/>
    <stop offset=".736" stop-color="#E0AC28"/>
    <stop offset=".823" stop-color="#DEAC2C"/>
    <stop offset=".892" stop-color="#D7A936"/>
    <stop offset=".956" stop-color="#CDA644"/>
    <stop offset=".978" stop-color="#C8A44A"/>
    <stop offset="1" stop-color="#C8A44A"/>
  </linearGradient>
  <path fill="url(#b)" d="M103.898 341.45l.205 37.56-62.137.338-.205-37.56" clip-path="url(#c)"/>
  <defs>
    <path id="d" d="M134.203 354.404c-.962.437-1.926.872-2.888 1.312-5.952 2.866-18.74 9.334-28.65 14.76-9.35 5.12-17.88 10.428-26.584 16.702-4.57 3.295-9.04 6.755-13.35 10.388-12.33 10.38-28.33 25.977-24.75 43.886 4.03 20.15 24.57 35.88 40.45 46.845 2.67 1.844 5.39 3.62 8.15 5.35 4.62 2.9 9.34 5.648 14.12 8.29 5.34 2.948 10.74 5.763 16.14 8.497 14.56 7.36 26.7 12.994 45.62 20.852.4.17.41.123.48.035 0 0 .16-.2-.5-.6-5.04-3.03-11.47-7.17-17.2-11.22-10.32-7.31-20.92-14.15-30.36-22.58-.68-.6-1.35-1.22-2.02-1.85-4.51-4.21-8.81-8.87-12.78-13.76-3.37-4.15-6.5-8.48-9.31-12.85-3.83-5.96-7.23-12.72-9.43-19.46-1.98-6.08-2.62-12.61-1.8-18.96 2.01-15.56 12.2-25.97 22.68-36.27 2.11-2.07 4.24-4.14 6.31-6.25 3.01-3.06 6.19-5.95 9.45-8.76 5.3-4.58 10.81-8.95 16.11-13.5 9.21-7.92 19.838-16.05 29.776-23.04.27-.19 0 0-.12-.24-10.073 3.61-19.75 8.03-29.482 12.45"/>
  </defs>
  <clipPath id="f">
    <use overflow="visible" xlink:href="#d"/>
  </clipPath>
  <linearGradient id="e" x1="-438.363" x2="-438.005" y1="1205.172" y2="1205.172" gradientTransform="rotate(-90.457 190994.258 -412775.78) scale(503.6277)" gradientUnits="userSpaceOnUse">
    <stop offset="0"/>
    <stop offset=".044" stop-color="#555658"/>
    <stop offset=".093" stop-color="#7D7F82"/>
    <stop offset=".094" stop-color="#7F8184"/>
    <stop offset=".102" stop-color="#9B9D9F"/>
    <stop offset=".111" stop-color="#B4B6B8"/>
    <stop offset=".121" stop-color="#CACCCE"/>
    <stop offset=".132" stop-color="#DCDEDF"/>
    <stop offset=".145" stop-color="#EBEBEC"/>
    <stop offset=".161" stop-color="#F5F5F5"/>
    <stop offset=".184" stop-color="#FCFCFC"/>
    <stop offset=".247" stop-color="#FFF"/>
    <stop offset=".276" stop-color="#D5D6D8"/>
    <stop offset=".316" stop-color="#A3A6A8"/>
    <stop offset=".353" stop-color="#808184"/>
    <stop offset=".385" stop-color="#656769"/>
    <stop offset=".412" stop-color="#545457"/>
    <stop offset=".429" stop-color="#4D4D4F"/>
    <stop offset=".593" stop-color="#838588"/>
    <stop offset=".624" stop-color="#A5A7AA"/>
    <stop offset=".655" stop-color="#C4C5C7"/>
    <stop offset=".686" stop-color="#DCDDDE"/>
    <stop offset=".717" stop-color="#EEEEEF"/>
    <stop offset=".746" stop-color="#F9F9F9"/>
    <stop offset=".775" stop-color="#FFF"/>
    <stop offset=".8" stop-color="#F9F9F9"/>
    <stop offset=".828" stop-color="#EDEEEF"/>
    <stop offset=".856" stop-color="#DBDCDE"/>
    <stop offset=".885" stop-color="#C2C4C6"/>
    <stop offset=".915" stop-color="#A3A5A8"/>
    <stop offset=".918" stop-color="#A0A2A5"/>
    <stop offset=".925" stop-color="#939598"/>
    <stop offset=".95" stop-color="#6A6C6E"/>
    <stop offset=".972" stop-color="#48484A"/>
    <stop offset=".989" stop-color="#1F1F20"/>
    <stop offset="1"/>
  </linearGradient>
  <path fill="url(#e)" d="M34.402 532.486l-1.516-190.52 131.18-1.046 1.52 190.52" clip-path="url(#f)"/>
  <defs>
    <path id="g" d="M110.544 385.248l-8.55 8.682c.358.357 1.205 1.264 1.43 1.524 2.72 3.128 5.313 6.382 7.596 9.848 2.15 3.263 3.99 6.727 5.468 10.345 1.475 3.604 2.62 7.35 3.347 11.175.728 3.814 1.005 7.7.84 11.58-.084 1.96-.276 3.91-.53 5.854-.253 1.94-.432 3.977-.895 5.877-4.843 19.885-19.842 34.604-34.838 47.524-8.992 7.743-17.994 15.542-27.807 22.24-3.86 2.638-12.557 8.62-13.294 9.15-.63.456-.62.772.46.38 3.67-1.336 7.09-2.625 10.49-4.12 14.01-6.167 24.91-11.327 37.17-17.464 4.59-2.29 9.18-4.563 13.75-6.883 1.86-.94 3.72-1.867 5.57-2.824 5.21-2.703 10.26-5.705 15.15-8.95 15.23-10.1 31.48-22.154 39.96-38.788 4.44-8.725 3.44-20.058-.86-28.765-2.18-4.427-4.99-8.55-8.18-12.315-5.73-6.766-12.53-12.525-19.65-17.785-1.59-1.18-17.05-12.274-18.44-13.357-.01-.006-.02-.01-.03-.01-.69 0-8.11 7.082-8.11 7.082"/>
  </defs>
  <clipPath id="i">
    <use overflow="visible" xlink:href="#g"/>
  </clipPath>
  <linearGradient id="h" x1="-437.845" x2="-437.487" y1="1206.063" y2="1206.063" gradientTransform="rotate(90.4 -233436.892 -109777.035) scale(285.2967)" gradientUnits="userSpaceOnUse">
    <stop offset="0" stop-color="#CBA645"/>
    <stop offset=".028" stop-color="#CBA645"/>
    <stop offset=".22" stop-color="#E2AF29"/>
    <stop offset=".478" stop-color="#F7DA7E"/>
    <stop offset=".736" stop-color="#E0AC28"/>
    <stop offset=".823" stop-color="#DEAC2C"/>
    <stop offset=".892" stop-color="#D7A936"/>
    <stop offset=".956" stop-color="#CDA644"/>
    <stop offset=".978" stop-color="#C8A44A"/>
    <stop offset="1" stop-color="#C8A44A"/>
  </linearGradient>
  <path fill="url(#h)" d="M171.33 378.174l-1.068 152.54-128.644-.9 1.068-152.54" clip-path="url(#i)"/>
</svg>
