<?xml version="1.0" encoding="UTF-8" standalone="no"?>
<svg
   xmlns:dc="http://purl.org/dc/elements/1.1/"
   xmlns:cc="http://creativecommons.org/ns#"
   xmlns:rdf="http://www.w3.org/1999/02/22-rdf-syntax-ns#"
   xmlns:svg="http://www.w3.org/2000/svg"
   xmlns="http://www.w3.org/2000/svg"
   xmlns:xlink="http://www.w3.org/1999/xlink"
   xml:space="preserve"
   enable-background="new 0 0 595.28 841.89"
   viewBox="0 0 595.28 841.89"
   height="841.89px"
   width="595.28px"
   y="0px"
   x="0px"
   id="Calque_1"
   version="1.1"><metadata
     id="metadata407"><rdf:RDF><cc:Work
         rdf:about=""><dc:format>image/svg+xml</dc:format><dc:type
           rdf:resource="http://purl.org/dc/dcmitype/StillImage" /></cc:Work></rdf:RDF></metadata><defs
     id="defs405" />

     <g
     id="g3"><rect
       id="rect5"
       height="249.469"
       width="567.665"
       fill="#223068"
       y="51.785"
       x="14.725" /><g
       id="g7"><g
         id="g9"><path
           id="path11"
           d="M198.773,131.724c13.76-0.065,24.635-1.244,32.071,4.836     c3.321,2.707,5.914,6.881,8.966,10.341c8.55,9.688,18.547,20.59,26.896,30c0-15.057,0-30.116,0-45.178c6.784,0,13.573,0,20.351,0     c0,21.847,0,43.682,0,65.53c-14.098,0.206-25.558,1.154-32.766-5.175c-3.018-2.655-5.93-6.545-8.969-9.998     c-8.279-9.454-17.978-21.347-26.541-29.656c0,14.94,0,29.881,0,44.829c-6.787,0-13.566,0-20.354,0     C198.667,175.531,197.975,152.881,198.773,131.724z"
           fill="#CC992E"
           clip-rule="evenodd"
           fill-rule="evenodd" /><path
           id="path13"
           d="M378.092,147.247c-15.656,0.521-31.112,0.491-48.276,0.345     c-4.512-0.043-11.109-0.074-10.69,4.484c0.429,4.522,8.838,3.46,13.106,3.795c14.705,1.139,34.271-0.179,42.074,8.621     c5.629,6.353,5.442,23.623-2.074,29.307c-6.544,4.954-21.05,3.455-34.141,3.455c-20.933,0-38.665,3.316-39.651-15.523     c11.111,0,20.523,0,32.079,0c7.49,0,27.501,2.436,27.23-4.474c-0.17-4.505-7.977-3.677-14.144-4.146     c-15.551-1.189-36.995,0.172-43.106-11.03c-4.197-7.719-2.899-20.207,2.42-25.521c7.606-7.601,28.194-4.836,43.799-4.836     C363.414,131.724,377.834,130.932,378.092,147.247z"
           fill="#CC992E"
           clip-rule="evenodd"
           fill-rule="evenodd" /><path
           id="path15"
           d="M389.819,131.724c6.665,0,13.342,0,20.001,0     c0,21.847,0,43.682,0,65.53c-6.782,0-13.562,0-20.349,0c0-21.495,0-42.996,0-64.491     C389.442,132.269,389.423,131.791,389.819,131.724z"
           fill="#CC992E"
           clip-rule="evenodd"
           fill-rule="evenodd" /><path
           id="path17"
           d="M451.199,131.724c7.476,0,14.941,0,22.416,0     c11.214,21.89,22.646,43.572,33.795,65.53c-6.781,0-13.556,0-20.341,0c-1.75-3.539-3.877-6.707-5.523-10.343     c-12.764,0-25.514,0-38.276,0c-2.273,3.124-3.986,6.804-5.854,10.343c-6.781,0-13.57,0-20.356,0     C428.349,175.313,439.355,153.102,451.199,131.724z M452.579,169.656c6.332-0.223,13.562,0.466,19.318-0.337     c-3.673-5.3-5.989-11.945-10.013-16.895C458.971,158.342,455.578,163.801,452.579,169.656z"
           fill="#CC992E"
           clip-rule="evenodd"
           fill-rule="evenodd" /></g><g
         id="g19"><path
           id="path21"
           d="M195.786,241.724l12.181-31.696h4.513l12.974,31.696h-4.78l-3.695-9.599H203.73l-3.486,9.599H195.786z      M204.941,228.707h10.738l-3.305-8.775c-1.008-2.665-1.766-4.861-2.249-6.583c-0.401,2.034-0.965,4.054-1.711,6.061     L204.941,228.707z"
           fill="#FFFFFF" /><path
           id="path23"
           d="M227.379,231.541l3.958-0.348c0.184,1.587,0.622,2.888,1.313,3.899c0.68,1.019,1.74,1.846,3.182,2.474     c1.446,0.621,3.065,0.94,4.868,0.94c1.598,0,3.014-0.241,4.233-0.714c1.227-0.479,2.137-1.128,2.744-1.963     c0.594-0.825,0.892-1.732,0.892-2.707c0-0.996-0.282-1.867-0.867-2.606c-0.567-0.746-1.525-1.367-2.854-1.873     c-0.844-0.331-2.729-0.846-5.638-1.543c-2.918-0.702-4.952-1.363-6.121-1.99c-1.508-0.783-2.638-1.77-3.39-2.947     c-0.731-1.171-1.114-2.489-1.114-3.934c0-1.609,0.461-3.104,1.361-4.497c0.922-1.388,2.242-2.444,3.987-3.163     c1.749-0.723,3.673-1.087,5.818-1.087c2.344,0,4.424,0.383,6.214,1.139c1.798,0.753,3.175,1.866,4.136,3.338     c0.969,1.47,1.493,3.139,1.564,4.995l-4.027,0.305c-0.221-2.002-0.947-3.518-2.194-4.546c-1.242-1.02-3.084-1.535-5.523-1.535     c-2.541,0-4.383,0.467-5.547,1.397c-1.158,0.935-1.739,2.052-1.739,3.361c0,1.143,0.406,2.075,1.236,2.815     c0.803,0.735,2.906,1.488,6.323,2.253c3.406,0.774,5.747,1.449,7.013,2.031c1.847,0.848,3.211,1.924,4.084,3.232     c0.881,1.298,1.326,2.805,1.326,4.505c0,1.686-0.485,3.276-1.454,4.771c-0.963,1.489-2.353,2.655-4.16,3.477     c-1.81,0.832-3.847,1.244-6.105,1.244c-2.873,0-5.28-0.413-7.224-1.249c-1.935-0.839-3.448-2.098-4.561-3.779     C228.021,235.558,227.435,233.661,227.379,231.541z"
           fill="#FFFFFF" /><path
           id="path25"
           d="M256.919,231.541l3.956-0.348c0.177,1.587,0.612,2.888,1.314,3.899c0.678,1.019,1.742,1.846,3.181,2.474     c1.445,0.621,3.064,0.94,4.861,0.94c1.608,0,3.015-0.241,4.241-0.714c1.216-0.479,2.139-1.128,2.732-1.963     c0.604-0.825,0.897-1.732,0.897-2.707c0-0.996-0.279-1.867-0.868-2.606c-0.566-0.746-1.522-1.367-2.851-1.873     c-0.847-0.331-2.729-0.846-5.643-1.543c-2.909-0.702-4.952-1.363-6.115-1.99c-1.516-0.783-2.643-1.77-3.386-2.947     c-0.742-1.171-1.106-2.489-1.106-3.934c0-1.609,0.451-3.104,1.365-4.497c0.895-1.388,2.223-2.444,3.98-3.163     c1.733-0.723,3.666-1.087,5.799-1.087c2.354,0,4.426,0.383,6.231,1.139c1.787,0.753,3.16,1.866,4.129,3.338     c0.969,1.47,1.486,3.139,1.554,4.995l-4.021,0.305c-0.211-2.002-0.939-3.518-2.19-4.546c-1.248-1.02-3.089-1.535-5.522-1.535     c-2.535,0-4.386,0.467-5.551,1.397c-1.158,0.935-1.736,2.052-1.736,3.361c0,1.143,0.406,2.075,1.228,2.815     c0.811,0.735,2.915,1.488,6.327,2.253c3.411,0.774,5.752,1.449,7.018,2.031c1.838,0.848,3.206,1.924,4.085,3.232     c0.88,1.298,1.318,2.805,1.318,4.505c0,1.686-0.485,3.276-1.443,4.771c-0.974,1.489-2.363,2.655-4.164,3.477     c-1.809,0.832-3.855,1.244-6.114,1.244c-2.862,0-5.271-0.413-7.214-1.249c-1.938-0.839-3.458-2.098-4.561-3.779     C257.544,235.558,256.98,233.661,256.919,231.541z"
           fill="#FFFFFF" /><path
           id="path27"
           d="M308.674,210.028h4.199v18.308c0,3.188-0.358,5.72-1.072,7.595c-0.727,1.87-2.026,3.396-3.907,4.571     c-1.886,1.178-4.356,1.762-7.404,1.762c-2.973,0-5.408-0.511-7.295-1.543c-1.886-1.014-3.229-2.493-4.033-4.437     c-0.824-1.934-1.213-4.584-1.213-7.948v-18.308h4.188v18.284c0,2.761,0.258,4.788,0.769,6.095     c0.512,1.303,1.392,2.309,2.643,3.016c1.238,0.707,2.766,1.057,4.565,1.057c3.096,0,5.287-0.704,6.597-2.09     c1.312-1.406,1.963-4.088,1.963-8.078V210.028z"
           fill="#FFFFFF" /><path
           id="path29"
           d="M319.915,241.724v-31.696h14.064c2.825,0,4.974,0.285,6.443,0.848c1.472,0.574,2.646,1.575,3.522,3.021     c0.88,1.44,1.318,3.032,1.318,4.78c0,2.243-0.727,4.145-2.181,5.683c-1.457,1.542-3.701,2.523-6.749,2.941     c1.109,0.532,1.951,1.057,2.53,1.58c1.224,1.122,2.39,2.53,3.481,4.211l5.514,8.632h-5.271l-4.197-6.598     c-1.229-1.899-2.236-3.354-3.034-4.363c-0.789-1.011-1.499-1.722-2.134-2.12c-0.616-0.402-1.25-0.685-1.909-0.844     c-0.468-0.103-1.25-0.152-2.337-0.152h-4.858v14.078H319.915z M324.119,224.017h9.022c1.905,0,3.404-0.199,4.49-0.604     c1.076-0.391,1.903-1.022,2.471-1.898c0.562-0.874,0.836-1.813,0.836-2.839c0-1.503-0.537-2.734-1.633-3.698     c-1.086-0.967-2.806-1.448-5.152-1.448h-10.034V224.017z"
           fill="#FFFFFF" /><path
           id="path31"
           d="M348.354,241.724l12.169-31.696h4.522l12.978,31.696h-4.776l-3.698-9.599h-13.254l-3.483,9.599H348.354z      M357.506,228.707h10.745l-3.313-8.775c-1.014-2.665-1.747-4.861-2.248-6.583c-0.397,2.034-0.969,4.054-1.71,6.061     L357.506,228.707z"
           fill="#FFFFFF" /><path
           id="path33"
           d="M381.33,241.724v-31.696h4.308l16.647,24.885v-24.885h4.017v31.696h-4.293l-16.661-24.909v24.909H381.33z     "
           fill="#FFFFFF" /><path
           id="path35"
           d="M435.977,230.611l4.179,1.063c-0.872,3.438-2.455,6.066-4.739,7.872     c-2.283,1.815-5.074,2.719-8.372,2.719c-3.422,0-6.19-0.689-8.335-2.081c-2.148-1.394-3.771-3.408-4.902-6.049     c-1.099-2.64-1.666-5.467-1.666-8.498c0-3.303,0.64-6.179,1.892-8.632c1.259-2.459,3.051-4.333,5.386-5.607     c2.325-1.279,4.889-1.916,7.685-1.916c3.164,0,5.844,0.813,8.001,2.427c2.165,1.614,3.664,3.877,4.524,6.803l-4.136,0.98     c-0.728-2.307-1.799-3.992-3.196-5.044c-1.397-1.042-3.158-1.57-5.275-1.57c-2.439,0-4.463,0.573-6.106,1.756     c-1.635,1.161-2.785,2.731-3.449,4.691c-0.669,1.974-0.993,4.003-0.993,6.087c0,2.699,0.389,5.05,1.173,7.067     c0.782,2,2.005,3.509,3.667,4.508c1.66,0.989,3.456,1.484,5.381,1.484c2.35,0,4.34-0.677,5.972-2.029     C434.287,235.292,435.393,233.276,435.977,230.611z"
           fill="#FFFFFF" /><path
           id="path37"
           d="M445.427,241.724v-31.696h22.907v3.74h-18.722v9.713h17.53v3.714h-17.53v10.785h19.462v3.745H445.427z"
           fill="#FFFFFF" /><path
           id="path39"
           d="M473.443,231.541l3.946-0.348c0.195,1.587,0.638,2.888,1.318,3.899c0.68,1.019,1.748,1.846,3.188,2.474     c1.44,0.621,3.072,0.94,4.861,0.94c1.61,0,3.027-0.241,4.236-0.714c1.228-0.479,2.139-1.128,2.746-1.963     c0.594-0.825,0.891-1.732,0.891-2.707c0-0.996-0.289-1.867-0.864-2.606c-0.571-0.746-1.527-1.367-2.856-1.873     c-0.842-0.331-2.728-0.846-5.635-1.543c-2.919-0.702-4.967-1.363-6.119-1.99c-1.518-0.783-2.652-1.77-3.398-2.947     c-0.729-1.171-1.105-2.489-1.105-3.934c0-1.609,0.458-3.104,1.363-4.497c0.91-1.388,2.222-2.444,3.992-3.163     c1.731-0.723,3.664-1.087,5.814-1.087c2.344,0,4.408,0.383,6.207,1.139c1.794,0.753,3.169,1.866,4.136,3.338     c0.97,1.47,1.493,3.139,1.558,4.995l-4.015,0.305c-0.224-2.002-0.952-3.518-2.202-4.546c-1.246-1.02-3.081-1.535-5.521-1.535     c-2.538,0-4.385,0.467-5.549,1.397c-1.15,0.935-1.738,2.052-1.738,3.361c0,1.143,0.416,2.075,1.236,2.815     c0.801,0.735,2.907,1.488,6.313,2.253c3.413,0.774,5.749,1.449,7.024,2.031c1.845,0.848,3.205,1.924,4.083,3.232     c0.886,1.298,1.327,2.805,1.327,4.505c0,1.686-0.484,3.276-1.457,4.771c-0.965,1.489-2.352,2.655-4.154,3.477     c-1.813,0.832-3.855,1.244-6.115,1.244c-2.862,0-5.269-0.413-7.215-1.249c-1.931-0.839-3.455-2.098-4.558-3.779     C474.084,235.558,473.501,233.661,473.443,231.541z"
           fill="#FFFFFF" /></g><g
         id="g41"><g
           id="g43"><path
             id="path45"
             d="M518.33,207.835l-7.522-21.051h4.601l5.34,15.577l5.146-15.577h4.513l-7.542,21.051H518.33z"
             fill="#CC992E" /><path
             id="path47"
             d="M532.007,190.52v-3.736h4.032v3.736H532.007z M532.007,207.835v-15.25h4.032v15.25H532.007z"
             fill="#CC992E" /><path
             id="path49"
             d="M549.01,202.984l4.024,0.68c-0.529,1.467-1.342,2.59-2.457,3.36c-1.115,0.762-2.506,1.15-4.188,1.15      c-2.651,0-4.604-0.863-5.868-2.596c-1.012-1.383-1.517-3.13-1.517-5.252c0-2.525,0.647-4.507,1.983-5.937      c1.319-1.426,2.985-2.145,5.004-2.145c2.259,0,4.064,0.745,5.372,2.246c1.302,1.496,1.94,3.79,1.875,6.873h-10.102      c0.019,1.208,0.367,2.139,0.976,2.8c0.622,0.667,1.394,0.998,2.329,0.998c0.627,0,1.154-0.17,1.585-0.517      C548.464,204.303,548.787,203.75,549.01,202.984z M549.239,198.911c-0.026-1.173-0.323-2.057-0.9-2.669      c-0.576-0.611-1.288-0.917-2.104-0.917c-0.879,0-1.606,0.322-2.184,0.962c-0.575,0.649-0.853,1.518-0.836,2.624H549.239z"
             fill="#CC992E" /></g></g><g
         id="g51"><g
           id="g53"><defs
             id="defs55"><path
               d="M56.777,75.649c0.663,0.441,0.967,0.638,1.189,0.786c12.811,8.564,25.919,16.826,37.407,27.168       c3.233,2.914,6.321,5.989,9.303,9.16c2.634-1.464,7.749-4.77,14.038-8.214c-0.521-0.233-4.437-2.533-5.103-2.877       c-1.396-0.719-2.8-1.423-4.2-2.128c-0.282-0.143-0.564-0.284-0.846-0.427c-10.127-5.104-20.231-9.547-30.542-14.272       c-5.754-2.639-10.44-4.612-17.022-7.552c-3.294-1.472-2.811-1.218-3.995-1.755L56.777,75.649z"
               id="SVGID_1_" /></defs><clipPath
             id="SVGID_2_"><use
               id="use59"
               overflow="visible"
               xlink:href="#SVGID_1_" /></clipPath><linearGradient
             gradientTransform="matrix(1.9393 358.0788 358.0788 -1.9393 -430959 159559.5)"
             y2="1206.1533"
             x2="-438.3765"
             y1="1206.1533"
             x1="-438.7349"
             gradientUnits="userSpaceOnUse"
             id="SVGID_3_"><stop
               id="stop62"
               style="stop-color:#CBA645"
               offset="0" /><stop
               id="stop64"
               style="stop-color:#CBA645"
               offset="0.0275" /><stop
               id="stop66"
               style="stop-color:#E2AF29"
               offset="0.2198" /><stop
               id="stop68"
               style="stop-color:#F7DA7E"
               offset="0.478" /><stop
               id="stop70"
               style="stop-color:#E0AC28"
               offset="0.7363" /><stop
               id="stop72"
               style="stop-color:#DEAC2C"
               offset="0.8228" /><stop
               id="stop74"
               style="stop-color:#D7A936"
               offset="0.8922" /><stop
               id="stop76"
               style="stop-color:#CDA644"
               offset="0.9556" /><stop
               id="stop78"
               style="stop-color:#C8A44A"
               offset="0.978" /><stop
               id="stop80"
               style="stop-color:#C8A44A"
               offset="1" /></linearGradient><polygon
             id="polygon82"
             points="118.711,75.2 118.916,112.759 56.778,113.098 56.574,75.537           "
             fill="url(#SVGID_3_)"
             clip-path="url(#SVGID_2_)" /></g><g
           id="g84"><defs
             id="defs86"><path
               d="M149.016,88.154c-0.962,0.437-1.926,0.872-2.888,1.312c-5.952,2.865-18.741,9.334-28.65,14.759       c-9.349,5.121-17.881,10.428-26.584,16.703c-4.573,3.295-9.044,6.754-13.355,10.387       c-12.328,10.379-28.331,25.976-24.752,43.886c4.029,20.149,24.568,35.878,40.444,46.845c2.666,1.843,5.388,3.621,8.143,5.35       c4.616,2.899,9.336,5.648,14.116,8.29c5.337,2.948,10.737,5.763,16.142,8.498c14.554,7.36,26.701,12.993,45.619,20.852       c0.401,0.169,0.411,0.123,0.479,0.034c0,0,0.159-0.204-0.504-0.601c-5.04-3.029-11.47-7.175-17.198-11.226       c-10.324-7.312-20.919-14.151-30.365-22.584c-0.679-0.606-1.354-1.226-2.023-1.853c-4.511-4.217-8.815-8.872-12.783-13.763       c-3.375-4.158-6.507-8.484-9.315-12.855c-3.832-5.963-7.231-12.724-9.429-19.464c-1.981-6.081-2.623-12.615-1.804-18.963       c2.004-15.568,12.193-25.971,22.677-36.272c2.109-2.072,4.233-4.14,6.303-6.248c3.011-3.062,6.191-5.953,9.451-8.764       c5.301-4.578,10.809-8.944,16.105-13.5c9.21-7.918,19.837-16.045,29.775-23.033c0.272-0.19,0,0-0.119-0.24       C168.424,79.304,158.751,83.733,149.016,88.154"
               id="SVGID_4_" /></defs><clipPath
             id="SVGID_5_"><use
               id="use90"
               overflow="visible"
               xlink:href="#SVGID_4_" /></clipPath><linearGradient
             gradientTransform="matrix(-4.0126 -503.6117 -503.6117 4.0126 605278.75 -225076.5)"
             y2="1205.1367"
             x2="-437.4768"
             y1="1205.1367"
             x1="-437.835"
             gradientUnits="userSpaceOnUse"
             id="SVGID_6_"><stop
               id="stop93"
               style="stop-color:#000000"
               offset="0" /><stop
               id="stop95"
               style="stop-color:#555658"
               offset="0.0438" /><stop
               id="stop97"
               style="stop-color:#7D7F82"
               offset="0.0934" /><stop
               id="stop99"
               style="stop-color:#7F8184"
               offset="0.094" /><stop
               id="stop101"
               style="stop-color:#9B9D9F"
               offset="0.102" /><stop
               id="stop103"
               style="stop-color:#B4B6B8"
               offset="0.1108" /><stop
               id="stop105"
               style="stop-color:#CACCCE"
               offset="0.1207" /><stop
               id="stop107"
               style="stop-color:#DCDEDF"
               offset="0.1319" /><stop
               id="stop109"
               style="stop-color:#EBEBEC"
               offset="0.1451" /><stop
               id="stop111"
               style="stop-color:#F5F5F5"
               offset="0.1613" /><stop
               id="stop113"
               style="stop-color:#FCFCFC"
               offset="0.1841" /><stop
               id="stop115"
               style="stop-color:#FFFFFF"
               offset="0.2473" /><stop
               id="stop117"
               style="stop-color:#D5D6D8"
               offset="0.2756" /><stop
               id="stop119"
               style="stop-color:#A3A6A8"
               offset="0.3158" /><stop
               id="stop121"
               style="stop-color:#808184"
               offset="0.3527" /><stop
               id="stop123"
               style="stop-color:#656769"
               offset="0.3851" /><stop
               id="stop125"
               style="stop-color:#545457"
               offset="0.4118" /><stop
               id="stop127"
               style="stop-color:#4D4D4F"
               offset="0.4294" /><stop
               id="stop129"
               style="stop-color:#838588"
               offset="0.5934" /><stop
               id="stop131"
               style="stop-color:#A5A7AA"
               offset="0.6238" /><stop
               id="stop133"
               style="stop-color:#C4C5C7"
               offset="0.6549" /><stop
               id="stop135"
               style="stop-color:#DCDDDE"
               offset="0.6859" /><stop
               id="stop137"
               style="stop-color:#EEEEEF"
               offset="0.7165" /><stop
               id="stop139"
               style="stop-color:#F9F9F9"
               offset="0.7463" /><stop
               id="stop141"
               style="stop-color:#FFFFFF"
               offset="0.7747" /><stop
               id="stop143"
               style="stop-color:#F9F9F9"
               offset="0.8004" /><stop
               id="stop145"
               style="stop-color:#EDEEEF"
               offset="0.8279" /><stop
               id="stop147"
               style="stop-color:#DBDCDE"
               offset="0.8564" /><stop
               id="stop149"
               style="stop-color:#C2C4C6"
               offset="0.8855" /><stop
               id="stop151"
               style="stop-color:#A3A5A8"
               offset="0.9148" /><stop
               id="stop153"
               style="stop-color:#A0A2A5"
               offset="0.9176" /><stop
               id="stop155"
               style="stop-color:#939598"
               offset="0.9246" /><stop
               id="stop157"
               style="stop-color:#6A6C6E"
               offset="0.95" /><stop
               id="stop159"
               style="stop-color:#48484A"
               offset="0.9719" /><stop
               id="stop161"
               style="stop-color:#1F1F20"
               offset="0.9893" /><stop
               id="stop163"
               style="stop-color:#000000"
               offset="1" /></linearGradient><polygon
             id="polygon165"
             points="49.214,266.237 47.698,75.717 178.88,74.67 180.399,265.191           "
             fill="url(#SVGID_6_)"
             clip-path="url(#SVGID_5_)" /></g><g
           id="g167"><defs
             id="defs169"><path
               d="M125.357,118.998l-8.55,8.682c0.358,0.358,1.205,1.263,1.429,1.524c2.721,3.128,5.314,6.382,7.597,9.848       c2.151,3.263,3.989,6.727,5.468,10.345c1.475,3.604,2.62,7.35,3.347,11.175c0.728,3.814,1.005,7.7,0.84,11.58       c-0.084,1.959-0.276,3.912-0.53,5.854c-0.253,1.94-0.432,3.977-0.895,5.877c-4.843,19.885-19.842,34.604-34.838,47.525       c-8.992,7.743-17.994,15.541-27.807,22.241c-3.861,2.637-12.557,8.619-13.294,9.149c-0.634,0.455-0.625,0.773,0.452,0.38       c3.667-1.336,7.085-2.626,10.486-4.12c14.009-6.168,24.905-11.327,37.166-17.464c4.583-2.292,9.175-4.563,13.746-6.883       c1.855-0.942,3.718-1.867,5.563-2.824c5.212-2.703,10.256-5.705,15.145-8.949c15.232-10.102,31.483-22.156,39.956-38.789       c4.443-8.725,3.439-20.058-0.864-28.765c-2.188-4.426-4.992-8.551-8.182-12.315c-5.729-6.765-12.535-12.525-19.65-17.785       c-1.594-1.18-17.05-12.275-18.44-13.358c-0.01-0.006-0.022-0.01-0.033-0.01C132.78,111.916,125.357,118.998,125.357,118.998"
               id="SVGID_7_" /></defs><clipPath
             id="SVGID_8_"><use
               id="use173"
               overflow="visible"
               xlink:href="#SVGID_7_" /></clipPath><linearGradient
             gradientTransform="matrix(-1.9952 285.2897 285.2897 1.9952 -344843.75 122886.25)"
             y2="1206.1074"
             x2="-438.4203"
             y1="1206.1074"
             x1="-438.7783"
             gradientUnits="userSpaceOnUse"
             id="SVGID_9_"><stop
               id="stop176"
               style="stop-color:#CBA645"
               offset="0" /><stop
               id="stop178"
               style="stop-color:#CBA645"
               offset="0.0275" /><stop
               id="stop180"
               style="stop-color:#E2AF29"
               offset="0.2198" /><stop
               id="stop182"
               style="stop-color:#F7DA7E"
               offset="0.478" /><stop
               id="stop184"
               style="stop-color:#E0AC28"
               offset="0.7363" /><stop
               id="stop186"
               style="stop-color:#DEAC2C"
               offset="0.8228" /><stop
               id="stop188"
               style="stop-color:#D7A936"
               offset="0.8922" /><stop
               id="stop190"
               style="stop-color:#CDA644"
               offset="0.9556" /><stop
               id="stop192"
               style="stop-color:#C8A44A"
               offset="0.978" /><stop
               id="stop194"
               style="stop-color:#C8A44A"
               offset="1" /></linearGradient><polygon
             id="polygon196"
             points="186.142,111.923 185.075,264.464 56.43,263.563       57.499,111.024     "
             fill="url(#SVGID_9_)"
             clip-path="url(#SVGID_8_)" /></g></g></g></g><g
     id="g198"><g
       id="g200"><g
         id="g202"><path
           id="path204"
           d="M183.961,397.975c13.76-0.066,24.635-1.244,32.071,4.836     c3.321,2.707,5.914,6.881,8.966,10.34c8.55,9.688,18.547,20.591,26.896,30.001c0-15.057,0-30.116,0-45.177     c6.784,0,13.573,0,20.351,0c0,21.846,0,43.682,0,65.529c-14.098,0.205-25.558,1.154-32.766-5.176     c-3.018-2.654-5.93-6.545-8.969-9.998c-8.279-9.453-17.978-21.347-26.541-29.656c0,14.941,0,29.883,0,44.83     c-6.787,0-13.566,0-20.354,0C183.855,441.781,183.162,419.131,183.961,397.975z"
           fill="#CC992E"
           clip-rule="evenodd"
           fill-rule="evenodd" /><path
           id="path206"
           d="M363.279,413.497c-15.656,0.521-31.112,0.491-48.276,0.345     c-4.512-0.043-11.109-0.074-10.69,4.484c0.429,4.522,8.838,3.46,13.106,3.795c14.705,1.139,34.271-0.18,42.074,8.62     c5.629,6.353,5.442,23.623-2.074,29.308c-6.544,4.954-21.05,3.455-34.141,3.455c-20.933,0-38.665,3.316-39.651-15.523     c11.111,0,20.523,0,32.079,0c7.49,0,27.501,2.436,27.23-4.473c-0.17-4.506-7.977-3.678-14.144-4.146     c-15.551-1.188-36.995,0.172-43.106-11.029c-4.197-7.719-2.899-20.207,2.42-25.521c7.606-7.602,28.194-4.836,43.799-4.836     C348.602,397.975,363.021,397.183,363.279,413.497z"
           fill="#CC992E"
           clip-rule="evenodd"
           fill-rule="evenodd" /><path
           id="path208"
           d="M375.007,397.975c6.665,0,13.342,0,20.001,0     c0,21.846,0,43.682,0,65.529c-6.782,0-13.562,0-20.349,0c0-21.494,0-42.996,0-64.49     C374.63,398.519,374.61,398.041,375.007,397.975z"
           fill="#CC992E"
           clip-rule="evenodd"
           fill-rule="evenodd" /><path
           id="path210"
           d="M436.387,397.975c7.476,0,14.941,0,22.416,0     c11.214,21.889,22.646,43.57,33.795,65.529c-6.781,0-13.556,0-20.341,0c-1.75-3.539-3.877-6.707-5.523-10.344     c-12.764,0-25.514,0-38.276,0c-2.273,3.125-3.986,6.805-5.854,10.344c-6.781,0-13.57,0-20.356,0     C413.536,441.563,424.543,419.352,436.387,397.975z M437.767,435.906c6.332-0.223,13.562,0.467,19.318-0.337     c-3.673-5.3-5.989-11.945-10.013-16.896C444.158,424.592,440.766,430.052,437.767,435.906z"
           fill="#CC992E"
           clip-rule="evenodd"
           fill-rule="evenodd" /></g><g
         id="g212"><path
           id="path214"
           d="M180.973,507.975l12.181-31.696h4.513l12.974,31.696h-4.78l-3.695-9.6h-13.247l-3.486,9.6H180.973z      M190.128,494.957h10.738l-3.305-8.775c-1.008-2.664-1.766-4.861-2.249-6.582c-0.401,2.034-0.965,4.054-1.711,6.061     L190.128,494.957z"
           fill="#223068" /><path
           id="path216"
           d="M212.566,497.791l3.958-0.349c0.184,1.588,0.622,2.888,1.313,3.899c0.68,1.018,1.74,1.846,3.182,2.473     c1.446,0.621,3.065,0.941,4.868,0.941c1.598,0,3.014-0.242,4.233-0.715c1.227-0.479,2.137-1.129,2.744-1.963     c0.594-0.824,0.892-1.732,0.892-2.707c0-0.996-0.282-1.867-0.867-2.605c-0.567-0.746-1.525-1.367-2.854-1.873     c-0.844-0.33-2.729-0.846-5.638-1.543c-2.918-0.701-4.952-1.363-6.121-1.99c-1.508-0.783-2.638-1.77-3.39-2.947     c-0.731-1.172-1.114-2.489-1.114-3.934c0-1.609,0.461-3.104,1.361-4.496c0.922-1.388,2.242-2.444,3.987-3.163     c1.749-0.723,3.673-1.087,5.818-1.087c2.344,0,4.424,0.383,6.214,1.139c1.798,0.753,3.175,1.865,4.136,3.338     c0.969,1.471,1.493,3.139,1.564,4.995l-4.027,0.304c-0.221-2.002-0.947-3.518-2.194-4.545c-1.242-1.02-3.084-1.535-5.523-1.535     c-2.541,0-4.383,0.467-5.547,1.397c-1.158,0.935-1.739,2.053-1.739,3.362c0,1.142,0.406,2.074,1.236,2.814     c0.803,0.734,2.906,1.488,6.323,2.254c3.406,0.773,5.747,1.449,7.013,2.03c1.847,0.848,3.211,1.923,4.084,3.231     c0.881,1.299,1.326,2.805,1.326,4.506c0,1.686-0.485,3.275-1.454,4.77c-0.963,1.49-2.353,2.654-4.16,3.477     c-1.81,0.832-3.847,1.244-6.105,1.244c-2.873,0-5.28-0.412-7.224-1.248c-1.935-0.84-3.448-2.098-4.561-3.779     C213.208,501.809,212.623,499.911,212.566,497.791z"
           fill="#223068" /><path
           id="path218"
           d="M242.107,497.791l3.956-0.349c0.177,1.588,0.612,2.888,1.314,3.899c0.678,1.018,1.742,1.846,3.181,2.473     c1.445,0.621,3.064,0.941,4.861,0.941c1.608,0,3.015-0.242,4.241-0.715c1.216-0.479,2.139-1.129,2.732-1.963     c0.604-0.824,0.897-1.732,0.897-2.707c0-0.996-0.279-1.867-0.868-2.605c-0.566-0.746-1.522-1.367-2.851-1.873     c-0.847-0.33-2.729-0.846-5.643-1.543c-2.909-0.701-4.952-1.363-6.115-1.99c-1.516-0.783-2.643-1.77-3.386-2.947     c-0.742-1.172-1.106-2.489-1.106-3.934c0-1.609,0.451-3.104,1.365-4.496c0.895-1.388,2.223-2.444,3.98-3.163     c1.733-0.723,3.666-1.087,5.799-1.087c2.354,0,4.426,0.383,6.231,1.139c1.787,0.753,3.16,1.865,4.129,3.338     c0.969,1.471,1.486,3.139,1.554,4.995l-4.021,0.304c-0.211-2.002-0.939-3.518-2.19-4.545c-1.248-1.02-3.089-1.535-5.522-1.535     c-2.535,0-4.386,0.467-5.551,1.397c-1.158,0.935-1.736,2.053-1.736,3.362c0,1.142,0.406,2.074,1.228,2.814     c0.811,0.734,2.915,1.488,6.327,2.254c3.411,0.773,5.752,1.449,7.018,2.03c1.838,0.848,3.206,1.923,4.085,3.231     c0.88,1.299,1.318,2.805,1.318,4.506c0,1.686-0.485,3.275-1.443,4.77c-0.974,1.49-2.363,2.654-4.164,3.477     c-1.809,0.832-3.855,1.244-6.114,1.244c-2.862,0-5.271-0.412-7.214-1.248c-1.938-0.84-3.458-2.098-4.561-3.779     C242.731,501.809,242.168,499.911,242.107,497.791z"
           fill="#223068" /><path
           id="path220"
           d="M293.861,476.278h4.199v18.308c0,3.188-0.358,5.721-1.072,7.596c-0.727,1.869-2.026,3.395-3.907,4.57     c-1.886,1.178-4.356,1.762-7.404,1.762c-2.973,0-5.408-0.51-7.295-1.543c-1.886-1.014-3.229-2.492-4.033-4.436     c-0.824-1.934-1.213-4.584-1.213-7.949v-18.308h4.188v18.284c0,2.76,0.258,4.787,0.769,6.094     c0.512,1.305,1.392,2.311,2.643,3.018c1.238,0.705,2.766,1.057,4.565,1.057c3.096,0,5.287-0.705,6.597-2.09     c1.312-1.406,1.963-4.089,1.963-8.078V476.278z"
           fill="#223068" /><path
           id="path222"
           d="M305.103,507.975v-31.696h14.064c2.825,0,4.974,0.284,6.443,0.848c1.472,0.574,2.646,1.575,3.522,3.021     c0.88,1.44,1.318,3.031,1.318,4.78c0,2.243-0.727,4.145-2.181,5.683c-1.457,1.543-3.701,2.524-6.749,2.941     c1.109,0.533,1.951,1.058,2.53,1.58c1.224,1.121,2.39,2.53,3.481,4.211l5.514,8.633h-5.271l-4.197-6.598     c-1.229-1.9-2.236-3.355-3.034-4.363c-0.789-1.012-1.499-1.723-2.134-2.121c-0.616-0.402-1.25-0.684-1.909-0.844     c-0.468-0.104-1.25-0.152-2.337-0.152h-4.858v14.078H305.103z M309.307,490.268h9.022c1.905,0,3.404-0.199,4.49-0.604     c1.076-0.392,1.903-1.021,2.471-1.898c0.562-0.873,0.836-1.813,0.836-2.839c0-1.503-0.537-2.733-1.633-3.698     c-1.086-0.967-2.806-1.447-5.152-1.447h-10.034V490.268z"
           fill="#223068" /><path
           id="path224"
           d="M333.542,507.975l12.169-31.696h4.522l12.978,31.696h-4.776l-3.698-9.6h-13.254l-3.483,9.6H333.542z      M342.693,494.957h10.745l-3.313-8.775c-1.014-2.664-1.747-4.861-2.248-6.582c-0.397,2.034-0.969,4.054-1.71,6.061     L342.693,494.957z"
           fill="#223068" /><path
           id="path226"
           d="M366.518,507.975v-31.696h4.308l16.647,24.884v-24.884h4.017v31.696h-4.293l-16.661-24.909v24.909     H366.518z"
           fill="#223068" /><path
           id="path228"
           d="M421.164,496.861l4.179,1.063c-0.872,3.438-2.455,6.066-4.739,7.871     c-2.283,1.816-5.074,2.719-8.372,2.719c-3.422,0-6.19-0.689-8.335-2.08c-2.148-1.395-3.771-3.408-4.902-6.049     c-1.099-2.641-1.666-5.467-1.666-8.498c0-3.303,0.64-6.178,1.892-8.633c1.259-2.458,3.051-4.333,5.386-5.606     c2.325-1.278,4.889-1.915,7.685-1.915c3.164,0,5.844,0.813,8.001,2.427c2.165,1.613,3.664,3.877,4.524,6.804l-4.136,0.98     c-0.728-2.307-1.799-3.993-3.196-5.045c-1.397-1.043-3.158-1.57-5.275-1.57c-2.439,0-4.463,0.573-6.106,1.756     c-1.635,1.16-2.785,2.731-3.449,4.691c-0.669,1.975-0.993,4.004-0.993,6.088c0,2.699,0.389,5.049,1.173,7.066     c0.782,2,2.005,3.51,3.667,4.508c1.66,0.988,3.456,1.484,5.381,1.484c2.35,0,4.34-0.678,5.972-2.029     C419.475,501.543,420.58,499.525,421.164,496.861z"
           fill="#223068" /><path
           id="path230"
           d="M430.614,507.975v-31.696h22.907v3.739H434.8v9.714h17.53v3.714H434.8v10.785h19.462v3.744H430.614z"
           fill="#223068" /><path
           id="path232"
           d="M458.631,497.791l3.946-0.349c0.195,1.588,0.638,2.888,1.318,3.899c0.68,1.018,1.748,1.846,3.188,2.473     c1.44,0.621,3.072,0.941,4.861,0.941c1.61,0,3.027-0.242,4.236-0.715c1.228-0.479,2.139-1.129,2.746-1.963     c0.594-0.824,0.891-1.732,0.891-2.707c0-0.996-0.289-1.867-0.864-2.605c-0.571-0.746-1.527-1.367-2.856-1.873     c-0.842-0.33-2.728-0.846-5.635-1.543c-2.919-0.701-4.967-1.363-6.119-1.99c-1.518-0.783-2.652-1.77-3.398-2.947     c-0.729-1.172-1.105-2.489-1.105-3.934c0-1.609,0.458-3.104,1.363-4.496c0.91-1.388,2.222-2.444,3.992-3.163     c1.731-0.723,3.664-1.087,5.814-1.087c2.344,0,4.408,0.383,6.207,1.139c1.794,0.753,3.169,1.865,4.136,3.338     c0.97,1.471,1.493,3.139,1.558,4.995l-4.015,0.304c-0.224-2.002-0.952-3.518-2.202-4.545c-1.246-1.02-3.081-1.535-5.521-1.535     c-2.538,0-4.385,0.467-5.549,1.397c-1.15,0.935-1.738,2.053-1.738,3.362c0,1.142,0.416,2.074,1.236,2.814     c0.801,0.734,2.907,1.488,6.313,2.254c3.413,0.773,5.749,1.449,7.024,2.03c1.845,0.848,3.205,1.923,4.083,3.231     c0.886,1.299,1.327,2.805,1.327,4.506c0,1.686-0.484,3.275-1.457,4.77c-0.965,1.49-2.352,2.654-4.154,3.477     c-1.813,0.832-3.855,1.244-6.115,1.244c-2.862,0-5.269-0.412-7.215-1.248c-1.931-0.84-3.455-2.098-4.558-3.779     C459.271,501.809,458.688,499.911,458.631,497.791z"
           fill="#223068" /></g><g
         id="g234"><g
           id="g236"><path
             id="path238"
             d="M503.518,474.086l-7.522-21.052h4.601l5.34,15.577l5.146-15.577h4.513l-7.542,21.052H503.518z"
             fill="#CC992E" /><path
             id="path240"
             d="M517.194,456.771v-3.736h4.032v3.736H517.194z M517.194,474.086v-15.25h4.032v15.25H517.194z"
             fill="#CC992E" /><path
             id="path242"
             d="M534.197,469.234l4.024,0.68c-0.529,1.468-1.342,2.59-2.457,3.361c-1.115,0.762-2.506,1.148-4.188,1.148      c-2.651,0-4.604-0.861-5.868-2.596c-1.012-1.383-1.517-3.13-1.517-5.252c0-2.525,0.647-4.507,1.983-5.938      c1.319-1.426,2.985-2.145,5.004-2.145c2.259,0,4.064,0.744,5.372,2.245c1.302,1.495,1.94,3.79,1.875,6.874h-10.102      c0.019,1.207,0.367,2.138,0.976,2.799c0.622,0.668,1.394,0.998,2.329,0.998c0.627,0,1.154-0.171,1.585-0.517      C533.651,470.553,533.975,470,534.197,469.234z M534.427,465.161c-0.026-1.173-0.323-2.056-0.9-2.669      c-0.576-0.61-1.288-0.916-2.104-0.916c-0.879,0-1.606,0.321-2.184,0.962c-0.575,0.649-0.853,1.518-0.836,2.623H534.427z"
             fill="#CC992E" /></g></g><g
         id="g244"><g
           id="g246"><defs
             id="defs248"><path
               d="M41.965,341.899c0.663,0.442,0.967,0.638,1.189,0.786c12.811,8.565,25.919,16.826,37.407,27.169       c3.233,2.912,6.321,5.988,9.303,9.159c2.634-1.464,7.749-4.77,14.038-8.214c-0.521-0.233-4.437-2.533-5.103-2.877       c-1.396-0.72-2.8-1.424-4.2-2.129c-0.282-0.143-0.564-0.283-0.846-0.427c-10.127-5.104-20.231-9.547-30.542-14.273       c-5.754-2.639-10.44-4.612-17.022-7.552c-3.294-1.472-2.811-1.218-3.995-1.755L41.965,341.899z"
               id="SVGID_10_" /></defs><clipPath
             id="SVGID_11_"><use
               id="use252"
               overflow="visible"
               xlink:href="#SVGID_10_" /></clipPath><linearGradient
             gradientTransform="matrix(1.9393 358.0788 358.0788 -1.9393 -430959 159559.5)"
             y2="1206.1074"
             x2="-437.6334"
             y1="1206.1074"
             x1="-437.9917"
             gradientUnits="userSpaceOnUse"
             id="SVGID_12_"><stop
               id="stop255"
               style="stop-color:#CBA645"
               offset="0" /><stop
               id="stop257"
               style="stop-color:#CBA645"
               offset="0.0275" /><stop
               id="stop259"
               style="stop-color:#E2AF29"
               offset="0.2198" /><stop
               id="stop261"
               style="stop-color:#F7DA7E"
               offset="0.478" /><stop
               id="stop263"
               style="stop-color:#E0AC28"
               offset="0.7363" /><stop
               id="stop265"
               style="stop-color:#DEAC2C"
               offset="0.8228" /><stop
               id="stop267"
               style="stop-color:#D7A936"
               offset="0.8922" /><stop
               id="stop269"
               style="stop-color:#CDA644"
               offset="0.9556" /><stop
               id="stop271"
               style="stop-color:#C8A44A"
               offset="0.978" /><stop
               id="stop273"
               style="stop-color:#C8A44A"
               offset="1" /></linearGradient><polygon
             id="polygon275"
             points="103.898,341.451 104.103,379.01 41.966,379.348       41.761,341.787     "
             fill="url(#SVGID_12_)"
             clip-path="url(#SVGID_11_)" /></g><g
           id="g277"><defs
             id="defs279"><path
               d="M134.203,354.404c-0.962,0.437-1.926,0.872-2.888,1.312c-5.952,2.866-18.741,9.334-28.65,14.759       c-9.349,5.121-17.881,10.429-26.584,16.703c-4.573,3.295-9.044,6.755-13.355,10.388       c-12.328,10.379-28.331,25.977-24.752,43.886c4.029,20.149,24.568,35.879,40.444,46.845c2.666,1.844,5.388,3.621,8.143,5.35       c4.616,2.899,9.336,5.648,14.116,8.291c5.337,2.947,10.737,5.762,16.142,8.496c14.554,7.361,26.701,12.994,45.619,20.852       c0.401,0.17,0.411,0.123,0.479,0.035c0,0,0.159-0.203-0.504-0.602c-5.04-3.029-11.47-7.174-17.198-11.227       c-10.324-7.311-20.919-14.15-30.365-22.584c-0.679-0.605-1.354-1.225-2.023-1.852c-4.511-4.217-8.815-8.872-12.783-13.763       c-3.375-4.158-6.507-8.484-9.315-12.855c-3.832-5.963-7.231-12.725-9.429-19.464c-1.981-6.08-2.623-12.615-1.804-18.963       c2.004-15.568,12.193-25.971,22.677-36.272c2.109-2.072,4.233-4.14,6.303-6.248c3.011-3.063,6.191-5.953,9.451-8.764       c5.301-4.579,10.809-8.944,16.105-13.501c9.21-7.918,19.837-16.045,29.775-23.033c0.272-0.19,0,0-0.119-0.24       C153.612,345.555,143.938,349.983,134.203,354.404"
               id="SVGID_13_" /></defs><clipPath
             id="SVGID_14_"><use
               id="use283"
               overflow="visible"
               xlink:href="#SVGID_13_" /></clipPath><linearGradient
             gradientTransform="matrix(-4.0126 -503.6117 -503.6117 4.0126 605278.75 -225076.5)"
             y2="1205.1719"
             x2="-438.0052"
             y1="1205.1719"
             x1="-438.3633"
             gradientUnits="userSpaceOnUse"
             id="SVGID_15_"><stop
               id="stop286"
               style="stop-color:#000000"
               offset="0" /><stop
               id="stop288"
               style="stop-color:#555658"
               offset="0.0438" /><stop
               id="stop290"
               style="stop-color:#7D7F82"
               offset="0.0934" /><stop
               id="stop292"
               style="stop-color:#7F8184"
               offset="0.094" /><stop
               id="stop294"
               style="stop-color:#9B9D9F"
               offset="0.102" /><stop
               id="stop296"
               style="stop-color:#B4B6B8"
               offset="0.1108" /><stop
               id="stop298"
               style="stop-color:#CACCCE"
               offset="0.1207" /><stop
               id="stop300"
               style="stop-color:#DCDEDF"
               offset="0.1319" /><stop
               id="stop302"
               style="stop-color:#EBEBEC"
               offset="0.1451" /><stop
               id="stop304"
               style="stop-color:#F5F5F5"
               offset="0.1613" /><stop
               id="stop306"
               style="stop-color:#FCFCFC"
               offset="0.1841" /><stop
               id="stop308"
               style="stop-color:#FFFFFF"
               offset="0.2473" /><stop
               id="stop310"
               style="stop-color:#D5D6D8"
               offset="0.2756" /><stop
               id="stop312"
               style="stop-color:#A3A6A8"
               offset="0.3158" /><stop
               id="stop314"
               style="stop-color:#808184"
               offset="0.3527" /><stop
               id="stop316"
               style="stop-color:#656769"
               offset="0.3851" /><stop
               id="stop318"
               style="stop-color:#545457"
               offset="0.4118" /><stop
               id="stop320"
               style="stop-color:#4D4D4F"
               offset="0.4294" /><stop
               id="stop322"
               style="stop-color:#838588"
               offset="0.5934" /><stop
               id="stop324"
               style="stop-color:#A5A7AA"
               offset="0.6238" /><stop
               id="stop326"
               style="stop-color:#C4C5C7"
               offset="0.6549" /><stop
               id="stop328"
               style="stop-color:#DCDDDE"
               offset="0.6859" /><stop
               id="stop330"
               style="stop-color:#EEEEEF"
               offset="0.7165" /><stop
               id="stop332"
               style="stop-color:#F9F9F9"
               offset="0.7463" /><stop
               id="stop334"
               style="stop-color:#FFFFFF"
               offset="0.7747" /><stop
               id="stop336"
               style="stop-color:#F9F9F9"
               offset="0.8004" /><stop
               id="stop338"
               style="stop-color:#EDEEEF"
               offset="0.8279" /><stop
               id="stop340"
               style="stop-color:#DBDCDE"
               offset="0.8564" /><stop
               id="stop342"
               style="stop-color:#C2C4C6"
               offset="0.8855" /><stop
               id="stop344"
               style="stop-color:#A3A5A8"
               offset="0.9148" /><stop
               id="stop346"
               style="stop-color:#A0A2A5"
               offset="0.9176" /><stop
               id="stop348"
               style="stop-color:#939598"
               offset="0.9246" /><stop
               id="stop350"
               style="stop-color:#6A6C6E"
               offset="0.95" /><stop
               id="stop352"
               style="stop-color:#48484A"
               offset="0.9719" /><stop
               id="stop354"
               style="stop-color:#1F1F20"
               offset="0.9893" /><stop
               id="stop356"
               style="stop-color:#000000"
               offset="1" /></linearGradient><polygon
             id="polygon358"
             points="34.402,532.486 32.886,341.967 164.067,340.92       165.586,531.441     "
             fill="url(#SVGID_15_)"
             clip-path="url(#SVGID_14_)" /></g><g
           id="g360"><defs
             id="defs362"><path
               d="M110.544,385.248l-8.55,8.682c0.358,0.357,1.205,1.264,1.429,1.524       c2.721,3.128,5.314,6.382,7.597,9.848c2.151,3.263,3.989,6.727,5.468,10.345c1.475,3.604,2.62,7.35,3.347,11.175       c0.728,3.814,1.005,7.7,0.84,11.579c-0.084,1.96-0.276,3.912-0.53,5.855c-0.253,1.939-0.432,3.977-0.895,5.877       c-4.843,19.885-19.842,34.604-34.838,47.524c-8.992,7.743-17.994,15.542-27.807,22.241c-3.861,2.637-12.557,8.619-13.294,9.15       c-0.634,0.455-0.625,0.771,0.452,0.379c3.667-1.336,7.085-2.625,10.486-4.119c14.009-6.168,24.905-11.328,37.166-17.465       c4.583-2.291,9.175-4.563,13.746-6.883c1.855-0.941,3.718-1.867,5.563-2.824c5.212-2.703,10.256-5.705,15.145-8.949       c15.232-10.102,31.483-22.155,39.956-38.789c4.443-8.725,3.439-20.058-0.864-28.765c-2.188-4.427-4.992-8.551-8.182-12.315       c-5.729-6.766-12.535-12.525-19.65-17.785c-1.594-1.18-17.05-12.274-18.44-13.357c-0.01-0.006-0.022-0.01-0.033-0.01       C117.967,378.166,110.544,385.248,110.544,385.248"
               id="SVGID_16_" /></defs><clipPath
             id="SVGID_17_"><use
               id="use366"
               overflow="visible"
               xlink:href="#SVGID_16_" /></clipPath><linearGradient
             gradientTransform="matrix(-1.9952 285.2897 285.2897 1.9952 -344843.75 122886.25)"
             y2="1206.0625"
             x2="-437.4867"
             y1="1206.0625"
             x1="-437.8447"
             gradientUnits="userSpaceOnUse"
             id="SVGID_18_"><stop
               id="stop369"
               style="stop-color:#CBA645"
               offset="0" /><stop
               id="stop371"
               style="stop-color:#CBA645"
               offset="0.0275" /><stop
               id="stop373"
               style="stop-color:#E2AF29"
               offset="0.2198" /><stop
               id="stop375"
               style="stop-color:#F7DA7E"
               offset="0.478" /><stop
               id="stop377"
               style="stop-color:#E0AC28"
               offset="0.7363" /><stop
               id="stop379"
               style="stop-color:#DEAC2C"
               offset="0.8228" /><stop
               id="stop381"
               style="stop-color:#D7A936"
               offset="0.8922" /><stop
               id="stop383"
               style="stop-color:#CDA644"
               offset="0.9556" /><stop
               id="stop385"
               style="stop-color:#C8A44A"
               offset="0.978" /><stop
               id="stop387"
               style="stop-color:#C8A44A"
               offset="1" /></linearGradient><polygon
             id="polygon389"
             points="171.33,378.174 170.262,530.715 41.618,529.814       42.686,377.273     "
             fill="url(#SVGID_18_)"
             clip-path="url(#SVGID_17_)" /></g></g></g></g>

</svg>